<?xml version="1.0" standalone="no"?>
<!DOCTYPE svg PUBLIC "-//W3C//DTD SVG 20010904//EN"
 "http://www.w3.org/TR/2001/REC-SVG-20010904/DTD/svg10.dtd">
<svg version="1.0" xmlns="http://www.w3.org/2000/svg"
 width="301.000000pt" height="301.000000pt" viewBox="0 0 301.000000 301.000000"
 preserveAspectRatio="xMidYMid meet">
<metadata>
Created by potrace 1.14, written by Peter Selinger 2001-2017
</metadata>
<g transform="translate(0.000000,301.000000) scale(0.100000,-0.100000)"
fill="#000000" stroke="none">
<path d="M1695 2658 c-170 -135 -295 -323 -327 -490 l-12 -66 -93 -40 c-270
-116 -412 -235 -413 -346 0 -73 65 -148 177 -205 107 -54 347 -101 512 -101
l92 0 62 -44 c80 -57 164 -98 257 -128 64 -20 95 -23 210 -22 118 1 145 4 215
27 105 35 232 107 303 174 l57 53 -65 -30 c-112 -51 -182 -65 -320 -64 -99 0
-141 5 -204 22 -163 47 -326 152 -426 275 -49 60 -136 214 -127 223 17 18 429
84 665 108 79 7 145 16 147 18 2 2 -7 31 -20 64 -26 63 -32 135 -15 193 5 19
9 36 7 37 -1 1 -67 -6 -147 -17 -181 -23 -388 -61 -546 -99 -67 -17 -125 -30
-129 -30 -16 0 5 132 35 222 32 96 69 169 127 251 19 27 33 50 31 52 -2 2 -25
-15 -53 -37z m-305 -884 c37 -106 101 -213 180 -298 l45 -49 -80 7 c-168 16
-360 63 -433 108 -90 55 -63 133 69 203 84 44 180 84 193 81 5 -1 17 -24 26
-52z"/>
<path d="M2570 2439 c-197 -89 -209 -356 -20 -463 47 -27 65 -31 125 -31 138
1 239 90 260 227 15 101 -54 225 -150 269 -56 26 -156 25 -215 -2z m58 -71
c27 -27 7 -78 -29 -78 -21 0 -49 26 -49 45 0 35 53 58 78 33z"/>
<path d="M120 914 c0 -4 33 -69 73 -145 l72 -139 37 0 c36 0 39 3 66 56 l29
57 32 -57 c30 -52 35 -56 70 -56 l37 0 65 136 c35 76 65 141 67 145 2 5 -13 9
-33 9 l-36 0 -50 -106 c-27 -58 -52 -103 -57 -100 -4 2 -29 50 -57 105 l-49
101 -38 0 -38 0 25 -50 25 -49 -27 -56 c-15 -30 -30 -55 -33 -55 -3 0 -29 47
-58 105 -51 103 -52 105 -87 105 -19 0 -35 -3 -35 -6z"/>
<path d="M712 897 c-20 -21 -22 -34 -22 -123 0 -92 2 -102 23 -122 21 -20 34
-22 153 -22 123 0 132 1 152 23 20 21 22 34 22 123 0 92 -2 102 -23 122 -21
20 -34 22 -153 22 -123 0 -132 -1 -152 -23z m252 -40 c14 -10 16 -25 14 -87
l-3 -75 -110 0 -110 0 -3 75 c-2 62 0 77 14 87 24 17 174 17 198 0z"/>
<path d="M1090 775 l0 -145 30 0 c29 0 30 2 30 45 l0 45 63 0 c61 0 64 -1 107
-45 38 -38 50 -45 84 -45 l40 0 -44 45 c-28 29 -39 45 -28 45 8 0 27 9 42 21
23 18 26 28 26 80 0 95 -7 99 -195 99 l-155 0 0 -145z m274 89 c11 -4 16 -19
16 -45 l0 -39 -115 0 -115 0 0 38 c0 21 3 42 7 45 8 9 186 9 207 1z"/>
<path d="M1490 775 l0 -145 165 0 165 0 0 30 0 30 -130 0 -130 0 0 115 0 115
-35 0 -35 0 0 -145z"/>
<path d="M1860 775 l0 -145 155 0 c152 0 156 1 180 25 23 22 25 32 25 120 0
88 -2 98 -25 120 -24 24 -28 25 -180 25 l-155 0 0 -145z m284 82 c14 -10 16
-25 14 -87 l-3 -75 -117 -3 -118 -3 0 84 c0 46 3 87 7 90 12 13 198 8 217 -6z"/>
<path d="M173 560 c-29 -12 -43 -40 -43 -89 0 -65 20 -75 153 -81 111 -5 112
-5 112 -30 0 -25 -1 -25 -99 -28 -78 -2 -102 1 -116 13 -15 14 -19 13 -40 -10
-23 -24 -23 -25 -5 -45 16 -18 31 -20 145 -20 114 0 130 2 154 21 22 17 26 28
26 69 0 41 -4 52 -26 69 -23 18 -41 21 -135 21 -112 0 -126 6 -107 43 7 14 23
17 101 17 65 0 99 -4 113 -15 19 -13 23 -12 42 8 23 24 19 38 -15 56 -25 13
-227 14 -260 1z"/>
<path d="M520 419 l0 -150 28 3 27 3 5 98 5 98 100 -101 c95 -96 102 -100 142
-100 l43 0 0 151 0 150 -27 -3 -28 -3 -5 -103 -5 -102 -105 105 c-96 96 -108
105 -142 105 l-38 0 0 -151z"/>
<path d="M974 556 c-17 -8 -34 -21 -38 -31 -3 -9 -6 -61 -6 -115 0 -95 1 -99
26 -119 24 -19 40 -21 151 -21 118 0 125 1 148 25 23 22 25 31 25 122 -1 106
-8 125 -54 143 -40 15 -215 12 -252 -4z m235 -60 c7 -9 11 -42 9 -88 l-3 -73
-110 0 -110 0 -3 79 c-2 57 1 82 10 87 23 15 194 11 207 -5z"/>
<path d="M1384 556 c-17 -8 -34 -21 -38 -31 -3 -9 -6 -61 -6 -115 0 -95 1 -99
26 -119 24 -19 40 -21 151 -21 118 0 125 1 148 25 23 22 25 31 25 122 -1 106
-8 125 -54 143 -40 15 -215 12 -252 -4z m234 -55 c9 -5 12 -30 10 -87 l-3 -79
-110 0 -110 0 -3 79 c-2 57 1 82 10 87 7 5 54 9 103 9 50 0 96 -4 103 -9z"/>
<path d="M1737 564 c-4 -4 -7 -72 -7 -151 l0 -144 33 3 c31 3 32 4 35 58 2 48
7 58 30 72 l27 17 76 -75 c71 -71 78 -75 115 -72 l39 3 -88 92 -88 91 70 49
c39 26 71 51 71 56 0 4 -19 7 -41 7 -34 0 -56 -10 -120 -55 -43 -30 -81 -55
-83 -55 -3 0 -6 24 -8 53 -3 47 -5 52 -28 55 -14 2 -29 0 -33 -4z"/>
<path d="M2137 564 c-4 -4 -7 -72 -7 -151 l0 -143 180 0 180 0 0 30 0 30 -150
0 -150 0 0 30 0 29 123 3 122 3 3 28 3 27 -126 0 -126 0 3 28 3 27 148 3 148
3 -3 27 -3 27 -171 3 c-93 1 -173 -1 -177 -4z"/>
<path d="M2540 420 l0 -150 30 0 c29 0 30 2 30 45 l0 45 63 0 c61 0 64 -1 107
-45 38 -38 50 -45 84 -45 l40 0 -44 45 c-28 29 -39 45 -28 45 28 0 67 40 74
75 3 18 1 50 -6 70 -18 55 -52 65 -215 65 l-135 0 0 -150z m285 45 l0 -40
-112 -3 -113 -3 0 39 c0 21 3 42 7 46 4 3 54 5 112 4 l106 -3 0 -40z"/>
</g>
</svg>
